# xmcd
#
# Track frame offsets:
#	150
#	14654
#	28806
#	49377
#	67504
#	81757
#	97802
#	107419
#
# Disc length: 1596 seconds
#
# Revision: 0
# Processed by: cddbd v1.5.2PL0 Copyright (c) Steve Scherf et al.
# Submitted via: EasyCDDAExtractor 10.2.0.1
#
DISCID=58063a08
DTITLE=Various Artist - Airplay Radio March 2005
DYEAR=2005
DGENRE=Gospel
TTITLE0=The Galloways - He Led Me Out To Lead Me In
TTITLE1=The Steeles - I'll Never Get One
TTITLE2=Tony Gore - I Need Your Prayers
TTITLE3=Karen Peck and New River - Just One Touch
TTITLE4=The Wilburns - There's Still My Joy
TTITLE5=The Dosses - The Heart Of God
TTITLE6=Ellis Family - Rest A Little Farther On
TTITLE7=Marshall Pugh - Eastern Gate
EXTD=
EXTT0=
EXTT1=
EXTT2=
EXTT3=
EXTT4=
EXTT5=
EXTT6=
EXTT7=
PLAYORDER=
